<svg width="29" height="19" viewBox="0 0 29 19" fill="none" xmlns="http://www.w3.org/2000/svg">
<path d="M3.39455 10.3799C3.34746 10.3769 3.3096 10.3735 3.27143 10.3723C2.52347 10.3449 1.7752 10.3184 1.02723 10.2898C0.950899 10.2867 0.87364 10.2778 0.799152 10.2608C0.565529 10.2076 0.445485 10.002 0.523975 9.77573C0.562143 9.66584 0.620318 9.56119 0.6788 9.45992C1.51079 8.02248 2.4262 6.63982 3.41425 5.30518C3.51952 5.16329 3.62264 5.01954 3.72452 4.87549C3.73899 4.85487 3.75161 4.82501 3.74853 4.80131C3.72452 4.60062 3.79747 4.44426 3.98184 4.36146C4.20993 4.25896 4.44386 4.16846 4.67687 4.07766C6.21742 3.47744 7.75583 2.8723 9.30039 2.28193C10.009 2.01107 10.7258 1.76082 11.4452 1.51919C11.8949 1.36806 12.3655 1.30189 12.838 1.25695C13.3292 1.21016 13.8211 1.20708 14.313 1.2314C14.6891 1.24987 15.064 1.28865 15.4398 1.31389C15.8132 1.33882 16.1866 1.36714 16.5606 1.37791C17.1549 1.39515 17.7499 1.41146 18.3446 1.40469C18.9211 1.39823 19.4973 1.36776 20.0732 1.33728C20.5106 1.3142 20.9477 1.2788 21.3842 1.24094C21.8385 1.20154 22.2919 1.15352 22.7456 1.10797C23.2017 1.06211 23.6576 1.01286 24.1138 0.969149C24.1892 0.96207 24.2683 0.966379 24.3428 0.981154C24.5133 1.01501 24.6229 1.15198 24.6247 1.32559C24.6253 1.37176 24.6349 1.39792 24.6807 1.41854C25.4035 1.74389 26.1265 2.06832 26.8464 2.39921C27.3405 2.62637 27.8105 2.89693 28.2562 3.20904C28.363 3.28383 28.4559 3.37341 28.4873 3.50515C28.5351 3.70368 28.443 3.85204 28.2925 3.96347C28.0333 4.15554 27.768 4.33929 27.5042 4.5249C26.6667 5.11465 25.8295 5.70502 24.9892 6.29108C24.9171 6.34125 24.9184 6.39912 24.9162 6.46776C24.8873 7.41579 24.8497 8.36383 24.8306 9.31187C24.8146 10.1038 24.8134 10.8964 24.8183 11.6887C24.8208 12.091 24.8549 12.4927 24.866 12.895C24.8706 13.0609 24.8605 13.2281 24.8414 13.393C24.822 13.5596 24.7217 13.671 24.5604 13.7252C24.5354 13.7335 24.5081 13.7489 24.4921 13.7692C24.0848 14.2884 23.5843 14.7074 23.0592 15.0992C22.1992 15.7413 21.3361 16.379 20.4198 16.9408C19.4979 17.5059 18.5459 18.0123 17.5511 18.4373C17.3273 18.5331 17.0971 18.5491 16.8588 18.5211C16.4621 18.4743 16.065 18.4315 15.6682 18.3869C15.5005 18.3678 15.3309 18.3567 15.1659 18.3237C15.0877 18.3081 15.0188 18.2477 14.9446 18.2099C14.915 18.1948 14.8824 18.1754 14.851 18.1745C14.1692 18.16 13.4874 18.1465 12.8054 18.1357C12.3489 18.1286 11.8924 18.1295 11.4362 18.1215C10.4571 18.1046 9.47768 18.0904 8.49856 18.064C7.46311 18.036 6.42827 17.9944 5.39313 17.9596C5.04962 17.9479 4.70641 17.9368 4.36291 17.9279C3.87011 17.915 3.50075 17.593 3.43672 17.1033C3.4041 16.8549 3.38871 16.6037 3.37578 16.3532C3.35392 15.9386 3.33761 15.5237 3.32407 15.1084C3.31175 14.7268 3.30129 14.3448 3.29852 13.9628C3.29483 13.45 3.29021 12.9369 3.30191 12.4244C3.31483 11.8633 3.34561 11.3027 3.36993 10.7419C3.37516 10.6247 3.38594 10.5074 3.39517 10.379L3.39455 10.3799ZM16.5544 17.5681C16.4165 14.1998 16.2792 10.8475 16.1416 7.4949C16.1339 7.49459 16.1262 7.49428 16.1186 7.49367C16.1075 7.51029 16.0958 7.5263 16.085 7.54323C15.6722 8.18469 15.2681 8.832 14.8446 9.46638C14.4133 10.1122 13.7965 10.4498 13.0196 10.4603C12.1094 10.4726 11.1989 10.4634 10.2884 10.4646C8.47055 10.4667 6.65235 10.4695 4.83508 10.4153C4.66425 10.4101 4.49311 10.4147 4.31335 10.4147C4.31335 10.4378 4.31366 10.468 4.31335 10.4978C4.30504 11.031 4.29611 11.5644 4.28842 12.0975C4.28134 12.5795 4.2641 13.0615 4.27241 13.5432C4.28626 14.3275 4.31643 15.1112 4.34197 15.8952C4.3549 16.2873 4.39953 16.6758 4.4928 17.0584C4.50727 17.1178 4.52974 17.1289 4.58606 17.1242C5.02776 17.0876 5.46915 17.039 5.91147 17.0233C6.67236 16.9962 7.43387 16.9805 8.19506 16.9786C9.07446 16.9765 9.95386 16.9891 10.8329 17.007C11.1681 17.0137 11.5027 17.0497 11.837 17.0778C12.11 17.1005 12.3824 17.1313 12.6548 17.1587C12.9174 17.1852 13.1799 17.2107 13.4422 17.2381C13.8217 17.2775 14.2012 17.316 14.5801 17.3591C14.847 17.3893 15.1133 17.4262 15.3798 17.4604C15.6615 17.4964 15.9428 17.5361 16.2251 17.5672C16.3279 17.5786 16.4331 17.569 16.5541 17.569L16.5544 17.5681ZM24.0787 6.92146C24.0353 6.94978 24.0119 6.96455 23.9888 6.97994C23.4052 7.36962 22.8241 7.763 22.2374 8.14744C21.9357 8.34505 21.6313 8.5402 21.3146 8.71226C20.996 8.88525 20.6482 8.94189 20.2878 8.85909C19.9824 8.78891 19.7174 8.63501 19.4752 8.44201C18.7001 7.82394 17.9272 7.2031 17.1534 6.58349C17.1392 6.5721 17.1229 6.56287 17.0971 6.54563C17.182 10.1934 17.3202 13.8243 17.5024 17.4607C17.5249 17.452 17.5397 17.448 17.5529 17.4413C18.0734 17.1784 18.5976 16.922 19.1138 16.6508C20.325 16.0143 21.4602 15.2574 22.5412 14.4214C22.9561 14.1007 23.3458 13.7467 23.7435 13.4035C23.8632 13.3004 23.9402 13.1653 23.9469 13.0031C23.9691 12.4702 23.9946 11.9377 24.006 11.4046C24.0208 10.7228 24.0205 10.0407 24.0319 9.35865C24.0445 8.60269 24.063 7.84641 24.0787 7.09045C24.0796 7.03997 24.0787 6.98918 24.0787 6.92115V6.92146ZM1.57636 9.51656C1.6016 9.51902 1.61637 9.52117 1.63084 9.52148C2.19966 9.5421 2.76817 9.56611 3.33699 9.58181C4.17761 9.6049 5.01822 9.62737 5.85883 9.64029C6.99186 9.65753 8.12519 9.67446 9.25853 9.67508C10.5227 9.67538 11.7865 9.65322 13.0507 9.64922C13.5231 9.64768 13.8833 9.46084 14.1452 9.07024C14.8021 8.08989 15.4402 7.09752 16.025 6.07192C16.0493 6.02945 16.0653 5.98204 16.0881 5.92972C16.0398 5.92018 16.0053 5.9094 15.9702 5.90663C15.5183 5.87031 15.0665 5.83399 14.6143 5.79952C14.3053 5.77612 13.9956 5.75642 13.6866 5.73334C13.2474 5.7001 12.8081 5.66408 12.3686 5.63115C11.9854 5.60252 11.6021 5.5739 11.2186 5.55019C10.7812 5.5228 10.3438 5.49725 9.90584 5.47694C9.44752 5.4557 8.98889 5.43969 8.53026 5.42553C7.9639 5.40799 7.39785 5.39198 6.83149 5.3809C6.17526 5.36828 5.51902 5.36305 4.86278 5.35105C4.71442 5.34828 4.56544 5.3375 4.41893 5.31719C4.36629 5.3098 4.34259 5.31719 4.31366 5.35751C3.36008 6.68445 2.44806 8.03848 1.61452 9.44484C1.60221 9.46577 1.59144 9.48762 1.57636 9.51625V9.51656ZM17.1734 5.52865C17.2156 5.56589 17.2427 5.59206 17.2722 5.61545C17.7616 6.00421 18.2523 6.39081 18.7401 6.7811C19.1898 7.14123 19.6374 7.50413 20.0843 7.86765C20.3533 8.0865 20.646 8.10251 20.9471 7.95784C21.1702 7.85041 21.3912 7.73345 21.5975 7.5974C22.2494 7.1674 22.8989 6.73339 23.5403 6.28831C24.6598 5.51172 25.7725 4.72559 26.888 3.94315C27.0317 3.84219 27.1746 3.73969 27.3238 3.6335C27.3045 3.62026 27.2931 3.61072 27.2798 3.60395C26.8868 3.40142 26.4989 3.18749 26.0988 2.99973C25.4973 2.71748 24.8867 2.4543 24.2812 2.18036C24.2341 2.15912 24.1999 2.16004 24.1547 2.1822C23.5317 2.48631 22.9096 2.79227 22.2839 3.08992C21.4987 3.46328 20.7088 3.82649 19.9236 4.19986C19.0575 4.6117 18.1944 5.03001 17.3304 5.44585C17.2827 5.46893 17.2365 5.4951 17.1731 5.52865H17.1734ZM12.8146 4.65541C12.9072 4.66249 12.9916 4.66957 13.0756 4.67511C13.4028 4.69727 13.7303 4.71728 14.0575 4.74098C14.4459 4.76899 14.8344 4.79792 15.2222 4.83024C15.5411 4.85671 15.8597 4.88965 16.1786 4.91766C16.2968 4.92812 16.4147 4.96537 16.5329 4.90719C17.419 4.47196 18.3067 4.03949 19.1929 3.60457C20.1985 3.11116 21.2035 2.61621 22.2088 2.12187C22.2943 2.07971 22.3796 2.03723 22.4652 1.99506C22.4291 1.98244 22.3987 1.98306 22.3685 1.98613C21.9838 2.02553 21.5996 2.07047 21.2142 2.1031C20.7599 2.14157 20.3047 2.17451 19.8494 2.20006C19.3351 2.2293 18.8201 2.26408 18.3055 2.26654C17.6496 2.26993 16.993 2.25362 16.3374 2.22745C15.7486 2.20375 15.1604 2.16281 14.5728 2.11572C14.0729 2.0757 13.5742 2.08155 13.0747 2.10802C12.9731 2.11356 12.8715 2.12495 12.7647 2.13388C12.741 2.98003 12.7857 3.81634 12.814 4.6551L12.8146 4.65541ZM12.0635 2.25608C12.0442 2.25762 12.0309 2.25669 12.0192 2.26008C11.6178 2.37981 11.2082 2.47677 10.8172 2.6239C9.30131 3.19457 7.79123 3.78125 6.27898 4.36176C6.16818 4.40424 6.05737 4.44703 5.94656 4.48981C7.98791 4.48119 10.0253 4.50459 12.0635 4.61786V2.25577V2.25608Z" fill="black"/>
</svg>
