<svg width="196" height="32" viewBox="0 0 196 32" fill="none" xmlns="http://www.w3.org/2000/svg">
<path d="M179.6 30.7108C179.081 30.7108 178.557 30.6536 178.046 30.7231C176.673 30.9029 175.614 30.2285 174.846 29.2924C174.233 28.5444 173.959 27.5225 173.93 26.4802C173.906 25.5359 173.754 24.5917 173.685 23.6475C173.64 23.0057 173.603 22.3599 173.628 21.7222C173.656 20.9578 173.517 20.8802 172.761 20.7085C171.98 20.5327 171.208 20.5491 170.431 20.4755C169.941 20.4305 169.438 20.1607 169.005 19.895C168.706 19.7111 168.473 19.3759 168.285 19.0653C168.064 18.6933 168.338 18.3704 168.506 18.0475C168.567 17.9289 168.539 17.7613 168.551 17.6264C169.593 17.1196 170.636 17.2831 171.666 17.4425C172.177 17.5202 172.663 17.7368 173.166 17.8839C173.644 18.0229 173.963 17.8512 174.053 17.3771C174.098 17.14 174.053 16.8825 174.073 16.6372C174.188 15.2025 174.286 13.7677 174.437 12.3371C174.507 11.6708 175.083 11.3397 175.729 11.5032C176.603 11.7239 176.869 12.0305 176.922 12.942C177 14.295 177.057 15.648 177.147 17.001C177.196 17.7531 177.225 17.7981 177.981 17.7327C178.737 17.6714 179.506 17.982 180.254 17.6428C180.344 17.6019 180.495 17.651 180.601 17.7C181.218 17.9698 181.889 18.1783 182.436 18.5502C183.086 18.9917 183.704 18.8077 184.345 18.6892C184.787 18.6075 185.216 18.4726 185.756 18.3336C185.772 18.2396 185.862 18.0352 185.841 17.839C185.707 16.5514 185.641 15.3006 185.956 13.9966C186.16 13.1423 186.283 12.2553 186.544 11.3969C186.732 10.7756 187.145 10.4936 187.73 10.3873C189.091 10.138 190.42 10.2769 191.732 10.6898C192.537 10.9432 192.864 11.6054 193.105 12.3085C193.228 12.66 193.056 12.9993 192.729 13.175C192.349 13.3794 191.94 13.3345 191.609 13.0483C191.045 12.5537 190.407 12.4147 189.586 12.4965C189.573 14.5485 189.181 16.5064 189.075 18.538C189.635 18.538 190.023 18.5257 190.415 18.542C190.677 18.5543 190.939 18.6115 191.204 18.6402C191.413 18.6606 191.621 18.6688 191.83 18.681C192.406 18.7137 192.978 18.7628 193.555 18.775C193.788 18.7791 194.025 18.7056 194.262 18.6892C194.703 18.6565 195.198 18.4603 195.484 19.0653C195.092 19.8419 194.372 20.3283 193.653 20.6267C192.978 20.9047 192.157 20.827 191.401 20.8924C190.796 20.9415 190.191 20.9701 189.475 21.011C189.512 21.5342 189.537 21.9511 189.569 22.368C189.655 23.533 189.765 24.698 189.823 25.867C189.851 26.4352 189.684 26.987 189.716 27.5756C189.774 28.5403 189.038 29.0308 188.253 29.3456C187.325 29.7216 186.859 29.4804 186.532 28.4953C186.389 28.0621 186.324 27.592 186.291 27.1342C186.205 25.912 186.16 24.6816 186.099 23.4594C186.083 23.1529 186.062 22.8422 186.058 22.5356C186.046 21.3421 185.494 20.778 184.292 20.7003C184.002 20.6799 183.626 20.6717 183.442 20.5C182.633 19.7397 181.717 20.0299 180.822 20.1648C179.865 20.3079 178.933 20.6145 177.944 20.4346C177.715 20.3937 177.462 20.4673 177.094 20.5041C177.155 21.0559 177.229 21.5546 177.257 22.0574C177.311 23.0302 177.241 24.0153 177.396 24.9677C177.507 25.6422 177.891 26.2799 178.181 26.9216C178.234 27.0361 178.418 27.0892 178.586 27.1955C179.011 26.7254 179.53 26.4638 180.139 26.5006C180.761 26.5374 181.398 26.5783 181.987 26.7499C182.51 26.9053 182.694 27.3835 182.518 27.9517C182.232 28.8878 181.746 29.6685 180.748 30.0282C180.36 30.1672 180.008 30.4083 179.641 30.6045L179.604 30.7231L179.6 30.7108Z" fill="black"/>
<path d="M155.565 31.1932C154.862 30.02 154.555 28.7897 154.449 27.4775C154.334 26.0673 154.24 24.6408 153.95 23.2591C153.554 21.387 153.66 19.5108 153.676 17.6305C153.68 17.1605 153.84 16.6781 154.015 16.2367C154.085 16.0527 154.367 15.9342 154.579 15.832C154.878 15.6848 155.201 15.5826 155.561 15.4396C155.965 15.5949 156.165 15.9219 156.247 16.3961C156.464 17.6346 156.73 18.8609 156.983 20.1199C157.003 20.1117 157.122 20.1076 157.146 20.0586C157.498 19.3269 157.87 18.5993 158.172 17.8431C158.32 17.4752 158.45 17.2095 158.876 17.091C159.301 16.9724 159.693 16.7272 160.269 16.4533C160.813 16.4247 161.165 16.8539 161.385 17.4997C161.855 18.8691 162.35 20.2302 162.836 21.5914C162.873 21.6977 162.939 21.7917 163.02 21.9593C163.707 20.917 163.834 19.8133 163.719 18.7178C163.601 17.5897 164.157 16.764 164.692 15.9056C164.888 15.5949 166.532 15.2393 166.883 15.3701C167.19 15.4845 167.509 16.0078 167.41 16.347C167.321 16.6659 167.157 16.9683 167.006 17.2667C166.744 17.7859 166.814 18.2069 167.243 18.5707C167.656 18.9222 167.852 19.5231 167.639 20.0136C167.255 20.9088 167.202 21.9348 166.54 22.7278C166.405 22.8913 166.45 23.2019 166.405 23.439C166.066 25.2498 165.751 27.0647 165.367 28.8632C165.203 29.6276 164.655 29.9628 163.879 29.9301C163.601 29.9178 163.323 29.9056 163.045 29.8729C162.203 29.7829 162.158 29.6971 161.88 28.8632C161.459 27.6083 160.968 26.3739 160.523 25.1231C160.331 24.5876 160.184 24.0317 159.991 23.4022C159.481 24.0889 159.374 24.8247 159.235 25.5278C159.055 26.427 159.035 27.359 158.831 28.2542C158.655 29.0267 158.336 29.7707 158.05 30.5146C157.993 30.6659 157.809 30.8457 157.657 30.8743C156.967 31.0051 156.268 31.0869 155.561 31.185L155.565 31.1932Z" fill="black"/>
<path d="M112.081 18.8037C111.501 19.1307 111.084 19.3677 110.667 19.5926C110.503 19.6784 110.332 19.7561 110.152 19.8051C109.616 19.9482 109.085 20.0136 108.946 20.7534C108.885 21.0804 108.378 21.3053 108.239 21.6486C108.047 22.1187 108.039 22.6583 107.895 23.1529C107.523 24.4118 107.662 25.7526 107.192 27.0115C107.004 27.5184 107.221 28.1683 107.221 28.7529C107.221 29.1534 107.221 29.5622 107.127 29.9464C106.939 30.6986 106.387 30.952 105.643 30.6904C105.586 30.6699 105.529 30.6086 105.476 30.6127C104.307 30.6986 104.213 29.7666 104.114 29.0267C103.804 26.7009 103.685 24.3546 103.759 22.0042C103.796 20.8679 103.747 19.7275 103.759 18.587C103.775 17.2095 103.812 15.832 103.841 14.4545C103.861 13.5348 103.902 12.611 103.91 11.6912C103.918 10.2974 103.894 8.90351 103.91 7.50964C103.91 7.20716 103.996 6.90059 104.065 6.59811C104.221 5.94 104.683 5.60891 105.333 5.70292C105.5 5.72745 105.733 5.8092 105.807 5.94C106.056 6.39373 106.334 6.8638 106.444 7.36249C106.661 8.35168 106.833 9.35723 106.914 10.3628C107 11.3929 106.964 12.4352 106.976 13.4694C106.992 14.7447 107 16.0241 107.017 17.2749C107.675 17.651 108.108 17.3689 108.509 17.0051C108.848 16.6945 109.122 16.2734 109.682 16.5432C109.723 16.5637 109.804 16.531 109.853 16.5023C110.924 15.8075 112.11 16.0609 113.267 16.0977C113.827 16.114 114.227 16.4042 114.554 16.8784C115.425 18.1496 115.915 19.5558 116.136 21.0682C116.222 21.6445 116.275 22.2291 116.402 22.7972C116.651 23.9091 116.451 25.0005 116.328 26.1C116.21 27.1383 116.083 28.1806 116.005 29.2229C115.956 29.877 115.903 30.5105 115.58 31.0991C115.29 31.6264 115.106 31.7 114.542 31.4343C114.432 31.3812 114.333 31.2953 114.223 31.2504C112.805 30.6781 112.568 30.253 112.792 28.7406C112.956 27.6206 113.197 26.4965 113.213 25.3724C113.238 23.9295 113.152 22.4743 112.964 21.0437C112.874 20.3447 112.441 19.6948 112.085 18.8364L112.081 18.8037Z" fill="black"/>
<path d="M36.6652 1.84014C38.2676 1.64393 38.2839 1.64393 38.3739 3.13591C38.4147 3.83897 38.4229 4.55021 38.3534 5.24919C38.1858 6.9251 38.4965 8.5724 38.5701 10.232C38.6028 11.0004 38.5946 11.7689 38.6109 12.5374C38.6191 12.8317 38.6518 13.1219 38.6641 13.3099C39.8209 13.592 40.855 13.8413 41.8933 14.0907C41.9832 14.1111 42.1017 14.1479 42.1671 14.107C42.9274 13.6819 43.5978 14.2664 44.3172 14.3032C44.5584 14.3155 44.8895 14.5117 45.0039 14.7201C45.241 15.1534 45.5721 15.3169 46.0095 15.2393C46.4346 16.302 45.2369 16.3961 45.2206 17.1236C43.5488 16.9438 41.975 17.185 40.4504 16.6168C39.8822 16.4042 39.1996 16.4942 38.5088 16.441C38.4474 16.6699 38.3616 16.8661 38.3493 17.0664C38.2471 18.5707 38.0673 20.0749 38.1 21.5791C38.1245 22.7686 38.4106 23.954 38.5905 25.1394C38.6518 25.5318 38.7581 25.9202 38.8071 26.3166C38.8848 26.9502 39.3753 27.2772 39.9476 27.0401C40.0866 26.9829 40.2542 26.9134 40.3359 26.799C40.8101 26.1204 41.5908 26.1245 42.2734 25.9283C42.7966 25.7771 43.0255 26.2022 43.2585 26.5701C43.4547 26.8807 43.6755 27.171 43.9207 27.4448C44.2109 28.4953 43.4956 29.0308 42.7353 29.4559C42.1344 29.7911 41.46 29.9955 40.8019 30.2121C40.5812 30.2857 40.3155 30.2121 40.0702 30.2162C39.5838 30.2285 39.0442 30.3838 38.6273 30.2244C38.1654 30.0486 37.728 29.8769 37.2293 29.8402C36.5263 29.787 35.5044 28.9327 35.3572 28.291C35.2019 27.6083 35.0425 26.9257 34.9321 26.2349C34.7686 25.213 34.6378 24.187 34.507 23.161C34.4866 23.0139 34.5479 22.8585 34.5642 22.7032C34.7482 20.7085 34.9321 18.7137 35.112 16.7231C35.1161 16.6658 35.0793 16.6086 35.0629 16.5473C33.6241 16.3593 32.1812 16.1999 30.7464 15.975C29.9657 15.8524 29.6223 15.5131 29.6387 15.0758C29.655 14.622 30.027 14.2582 30.6933 14.0743C31.7274 13.7923 32.7657 13.5225 33.7998 13.2486C33.8612 13.2323 33.9225 13.2323 33.9838 13.22C34.4252 13.1342 35.067 13.1873 35.255 12.9216C35.5207 12.5415 35.4594 11.9283 35.5248 11.4133C35.5412 11.2907 35.5085 11.168 35.5085 11.0413C35.5044 9.65562 35.4431 8.26584 35.5166 6.88423C35.5779 5.72335 35.7455 4.55839 35.9704 3.41386C36.0766 2.86204 36.4241 2.35518 36.6612 1.82379L36.6652 1.84014Z" fill="black"/>
<path d="M72.141 18.2355C71.9693 19.6048 71.7772 20.9537 71.1968 22.1882C70.8698 22.8831 70.2648 23.2959 69.3982 23.2469C68.9241 23.2182 68.4417 23.3654 67.9594 23.4267C67.7182 23.4594 67.4771 23.5248 67.24 23.5003C66.0505 23.3777 64.8651 23.2387 63.6797 23.0833C63.0093 22.9934 62.8295 23.1324 62.7968 23.7742C62.7354 24.9636 63.1973 25.9161 64.023 26.7499C64.6852 27.4162 65.3229 28.058 66.3816 27.6982C67.2154 27.9844 67.8735 27.4734 68.5807 27.2077C68.7156 27.1587 68.8873 27.0361 68.92 26.9134C69.0957 26.2635 69.574 26.3902 70.0359 26.4352C70.3343 26.4638 70.6327 26.4883 70.9352 26.4924C71.1804 26.4924 72.1941 27.0688 72.2841 27.2772C72.4639 27.7023 72.329 28.2133 71.814 28.5689C71.16 29.0226 70.4446 29.3946 69.7579 29.7993C69.7334 29.8156 69.7007 29.8442 69.6762 29.8361C68.503 29.5744 67.5261 30.5064 66.3857 30.3797C65.5927 30.2939 64.8119 30.298 64.0189 30.3715C63.7124 30.4001 63.3854 30.0854 63.0584 29.9546C62.5515 29.7502 62.0446 29.5213 61.5173 29.3864C60.569 29.1453 59.9927 28.3768 59.5471 27.686C58.9994 26.8398 58.7419 25.7812 58.9095 24.6898C59.1097 23.4063 59.4531 22.1677 59.915 20.9537C60.0989 20.4714 60.1112 19.9277 60.2584 19.429C60.663 18.027 61.2394 16.7517 62.437 15.7788C63.79 14.6752 65.4455 14.4585 67.0111 13.9639C67.195 13.9067 67.428 14.0416 67.6406 14.0416C68.8954 14.0579 69.995 14.622 71.1109 15.0758C71.4216 15.2025 71.7241 15.6194 71.8099 15.9628C71.9979 16.7026 72.0429 17.4833 72.1451 18.2355H72.141ZM68.875 18.3499C68.9486 17.3321 67.7632 16.4206 66.635 16.625C64.6443 16.9847 63.835 18.4071 63.4262 20.1239C63.3527 20.4305 63.5489 20.6022 63.835 20.6104C64.9019 20.6308 65.9769 20.8106 67.0356 20.4796C68.5603 20.0054 68.7728 19.7765 68.875 18.3499Z" fill="black"/>
<path d="M82.3111 16.7926C81.4404 17.1605 80.9335 17.7736 80.5575 18.5543C80.2387 19.2083 79.7073 19.752 79.5683 20.5123C79.4375 21.2194 79.1718 21.8857 79.3435 22.6501C79.7032 24.2688 79.4825 25.9079 79.3149 27.5266C79.2535 28.0948 79.0042 28.6384 78.8571 29.1984C78.7998 29.4069 78.7263 29.6317 78.759 29.8361C78.8857 30.625 78.4606 31.046 77.827 31.3526C77.5122 31.2749 77.1934 31.1523 76.8705 31.1237C76.0816 31.0542 75.5338 30.5882 75.5338 29.8075C75.5338 28.5117 75.6115 27.2159 75.6279 25.9202C75.6442 24.5713 75.6769 23.2183 75.6197 21.8694C75.5502 20.2507 75.3949 18.6361 75.2722 17.0215C75.2314 16.4737 75.1537 15.9219 75.1455 15.3742C75.1373 14.9245 75.3744 14.6343 75.8363 14.5117C76.0938 14.4422 76.335 14.3032 76.568 14.1643C77.4468 13.6533 77.966 13.8536 78.2235 14.8142C78.2971 15.0799 78.3625 15.3497 78.4442 15.6153C78.4606 15.6644 78.53 15.6971 78.6404 15.7993C78.9102 15.5908 79.2168 15.3946 79.4702 15.1453C80.0751 14.5526 80.7619 14.2378 81.6284 14.2501C82.356 14.2624 83.0877 14.1929 83.8153 14.1316C84.1954 14.0989 84.4652 14.2378 84.7105 14.5076C85.1642 15.0063 85.5811 15.4845 85.8346 16.1631C86.0635 16.764 86.4641 17.2994 86.6889 17.9535C87.2366 19.5476 87.4533 21.1827 87.5718 22.8381C87.6576 24.0276 87.7803 25.2212 87.7517 26.4107C87.7271 27.4857 87.5228 28.5526 87.3797 29.6235C87.3265 30.0119 87.069 30.2367 86.6807 30.2121C86.0553 30.1754 85.4667 30.0159 84.9803 29.5786C84.5266 29.1698 84.453 28.6629 84.4611 28.0743C84.4775 26.5987 84.4366 25.1272 84.3998 23.6516C84.3876 23.1365 84.3835 22.601 84.2445 22.1105C83.8521 20.6962 83.3738 19.3064 82.9733 17.8962C82.8547 17.4711 82.7852 17.0583 82.3192 16.7844L82.3111 16.7926Z" fill="black"/>
<path d="M121.846 23.6802C121.887 24.9882 122.083 26.1164 122.762 27.1219C123.081 27.5961 123.53 27.8127 124.099 27.8209C124.344 27.8209 124.589 27.8536 124.834 27.874C125.587 27.9435 126.281 27.8863 126.903 27.3508C127.148 27.1383 127.573 27.1301 127.921 27.0524C128.035 27.0279 128.178 27.1137 128.284 27.081C129.147 26.8153 129.543 27.2732 129.772 28.0784C129.453 28.6548 128.955 29.133 128.378 29.55C127.937 29.8688 127.524 30.2367 127.066 30.5269C126.788 30.7027 126.453 30.8498 126.13 30.8866C124.642 31.046 123.195 30.7517 121.761 30.392C121.577 30.347 121.434 30.1427 121.282 29.9996C121.176 29.9015 121.115 29.7502 120.996 29.6767C119.713 28.8878 119.333 27.5797 118.969 26.2431C118.523 24.6081 118.413 22.9689 118.67 21.2971C118.785 20.5532 118.997 19.8542 119.435 19.2329C120.032 18.3826 120.551 17.467 121.225 16.6822C121.744 16.0772 122.28 15.3864 123.195 15.2965C123.257 15.2924 123.33 15.2883 123.371 15.2515C124.152 14.5689 125.084 14.761 126.003 14.712C126.874 14.6629 127.369 15.1167 127.896 15.6194C128.006 15.7216 128.051 15.9015 128.17 15.9832C129.617 16.9929 129.699 18.4726 129.527 20.0136C129.482 20.4305 129.359 20.8802 129.147 21.2358C128.137 22.8994 126.711 23.954 124.704 24.0971C123.755 24.1666 122.819 24.1462 121.846 23.6883V23.6802ZM125.926 19.241C125.905 18.9426 125.897 18.5421 125.84 18.1497C125.734 17.4057 125.235 17.2381 124.593 17.6428C123.379 18.4072 122.844 19.6621 122.202 20.8434C122.002 21.2113 122.173 21.6405 122.533 21.6159C123.298 21.5669 124.123 21.9062 124.822 21.3175C125.01 21.1622 125.272 21.0845 125.431 20.9129C125.623 20.7003 125.787 20.4387 125.869 20.1648C125.946 19.9073 125.905 19.6171 125.922 19.241H125.926Z" fill="black"/>
<path d="M100.922 17.3485C100.268 17.2013 99.5608 17.1318 98.9273 16.8825C97.4271 16.2939 95.3997 16.7394 94.39 18.1169C93.8096 18.9058 93.5357 19.7969 93.0902 20.6267C92.8735 21.0273 92.7059 21.4769 92.6119 21.9225C92.1459 24.138 92.5588 26.194 93.8627 28.0457C94.1202 28.4136 94.4922 28.7488 94.8805 28.9695C95.1708 29.133 95.5754 29.0962 95.931 29.1289C96.9121 29.2147 97.7868 29.1126 98.5471 28.3032C99.2747 27.5266 100.293 27.2282 101.38 27.1873C102.287 27.1505 102.774 27.5961 102.516 28.4626C102.23 29.4437 101.764 30.3388 100.677 30.7067C99.8306 30.9928 99.0172 31.4384 98.1506 31.5692C96.9979 31.745 95.8289 32.1619 94.623 31.7082C94.2674 31.5733 93.8423 31.6305 93.454 31.5651C93.221 31.5242 92.9348 31.4793 92.7795 31.328C91.9252 30.4942 90.9605 29.7584 90.3801 28.6752C89.7997 27.5961 89.5299 26.4352 89.395 25.2334C89.3255 24.6244 89.2315 24.0112 89.207 23.3981C89.1538 22.1187 89.4236 20.9128 90.0572 19.7806C90.327 19.2982 90.4659 18.7464 90.6948 18.2396C91.5164 16.4083 92.8449 15.1493 94.8356 14.6711C95.7021 14.4626 96.5646 14.1765 97.4435 14.1152C98.2569 14.062 99.0867 13.8372 99.9287 14.1274C100.203 14.2215 100.431 14.2215 100.562 14.528C100.624 14.6752 100.771 14.8142 100.914 14.9C101.625 15.3251 101.748 15.6685 101.396 16.4001C101.265 16.674 101.122 16.9438 100.922 17.3403V17.3485Z" fill="black"/>
<path d="M135.495 30.1794C134.702 29.411 133.786 28.5321 132.907 27.6778C133.373 26.3902 133.447 26.4638 134.661 26.4475C135.679 26.4352 136.23 27.2241 137.068 27.4694C137.404 27.5675 137.722 27.7269 138.184 27.9108C138.148 27.5021 138.16 27.2609 138.098 27.0361C137.747 25.7444 137.048 24.7225 135.895 23.9786C135.082 23.4513 134.252 22.8627 133.639 22.1269C133.173 21.5669 132.948 20.7494 132.776 20.0095C132.58 19.1511 132.564 18.2723 132.83 17.373C133.169 16.2244 133.901 15.5132 134.865 14.8796C135.83 14.2419 136.852 13.825 137.968 13.6901C138.928 13.5716 139.926 13.4898 140.87 13.6247C141.561 13.7228 142.157 14.2664 142.386 15.0104C142.538 15.4968 142.681 16.0078 142.685 16.5105C142.689 17.1645 142.072 17.4752 141.524 17.1114C140.637 16.5228 139.623 16.4083 138.626 16.2448C137.935 16.1345 137.412 16.6332 136.901 16.9643C135.478 17.9044 135.564 19.9032 136.999 20.9456C137.816 21.5383 138.708 22.0737 139.398 22.7932C140.33 23.7619 141.168 24.8615 141.557 26.1859C141.683 26.611 141.663 27.1178 141.569 27.5593C141.348 28.5935 141.185 29.6194 140.089 30.2735C139.521 30.6127 139.067 30.7313 138.438 30.7354C137.804 30.7435 137.24 30.7231 136.668 30.4043C136.378 30.2408 135.981 30.2612 135.482 30.1754L135.495 30.1794Z" fill="black"/>
<path d="M48.1104 29.7257C48.1104 29.7257 47.906 29.738 47.7221 29.7257C47.0844 29.6767 46.737 29.3905 46.7002 28.7529C46.6511 27.8618 46.6634 26.9666 46.6757 26.0755C46.6838 25.4337 46.737 24.7879 46.7656 24.1462C46.7983 23.4758 46.7574 22.8218 47.0599 22.1637C47.2643 21.7181 47.1498 21.1377 47.2275 20.6227C47.4401 19.1961 47.6485 17.7654 47.9265 16.3511C48.0655 15.6358 48.2453 15.5704 48.9647 15.7952C49.8803 16.0854 50.6202 15.7135 51.3682 15.2761C51.6176 15.1289 51.9078 15.0513 52.1817 14.9572C52.4719 14.8591 52.7907 14.8183 53.0605 14.6834C54.8958 13.7841 56.7475 13.8904 58.6114 14.5567C59.1306 14.7406 59.3799 15.1821 59.3431 15.7175C59.3145 16.1263 58.8281 16.7313 58.3621 16.8294C57.9779 16.9111 57.5405 16.9847 57.1767 16.8825C56.118 16.5882 55.0961 17.0337 54.0538 16.9438C53.4161 17.4548 52.4473 17.4834 52.1285 18.4685C51.7933 19.5149 51.2333 20.4959 50.9186 21.5464C50.6652 22.3926 50.5834 23.3 50.518 24.187C50.424 25.3847 50.4444 26.5905 50.3709 27.7882C50.2973 28.9777 49.4879 29.7053 48.1145 29.7257H48.1104Z" fill="black"/>
<path d="M13.0265 30.9642C12.7486 30.9397 12.4747 30.9193 12.164 30.8907C11.7307 29.8728 11.8207 28.8755 12.1681 27.8658C12.2867 27.5225 12.3602 27.1669 12.4256 26.8072C12.5605 26.0509 12.6995 25.2907 12.7935 24.5304C12.8957 23.6801 12.9611 22.8258 13.0183 21.9756C13.0756 21.1458 13.1042 20.3161 13.1532 19.2901C12.7159 19.9482 12.2621 20.1771 11.5304 19.6825C11.3097 18.2763 11.0645 16.7435 10.8519 15.3823C10.8519 16.4696 10.8192 17.745 10.8601 19.0203C10.9214 20.9578 11.0522 22.8912 11.1217 24.8288C11.1626 26.0019 11.1462 27.1791 11.138 28.3523C11.134 28.9899 11.1013 29.6276 11.0563 30.2653C11.0195 30.7721 10.574 31.3117 10.1407 31.4302C9.62972 31.5733 8.93074 31.2872 8.59556 30.8498C8.01921 30.0936 7.93745 29.1984 7.88432 28.3114C7.80256 26.9053 7.85161 25.4909 7.72899 24.0889C7.63906 23.0834 7.3611 22.0982 7.16899 21.1009C7.11994 20.8352 7.08315 20.5654 7.00957 20.128C6.90329 21.4238 6.83789 22.5479 6.71526 23.6638C6.53132 25.307 6.25337 26.9461 6.11847 28.5934C6.06534 29.2352 5.93862 29.8483 5.84869 30.4737C5.7792 30.952 5.52577 31.2708 5.26008 31.5896C4.83906 32.1006 4.40169 32.0761 3.91526 31.606C3.12227 30.8375 2.8484 29.8401 2.95877 28.8142C3.17132 26.8358 2.95468 24.8737 2.93833 22.9076C2.93015 21.6445 2.89336 20.3855 2.86475 19.1225C2.85658 18.7055 2.82796 18.2845 2.63585 17.8635C2.59497 18.0556 2.55001 18.2436 2.51731 18.4358C2.42738 18.9631 2.01862 19.4331 1.60986 19.4699C1.18884 19.5067 0.690151 19.1143 0.596137 18.5707C0.526648 18.1619 0.567524 17.7286 0.575699 17.3076C0.575699 17.1563 0.681976 16.9928 0.653363 16.8539C0.248691 14.9286 0.841392 13.0606 1.07847 11.1885C1.19701 10.232 1.70796 9.29182 2.68081 8.62145C3.903 7.77941 5.19877 7.78758 6.54358 7.73853C7.18942 7.714 7.83118 7.6486 8.47293 7.59546C8.59556 7.5832 8.73862 7.46875 8.82446 7.50554C9.76052 7.90612 10.8723 7.79167 11.6735 8.62963C12.3521 9.34087 12.7118 10.1298 12.8589 11.0699C13.0142 12.0387 13.2554 12.9993 13.3658 13.9721C13.4557 14.761 13.4107 15.5663 13.423 16.3634C13.423 16.5064 13.423 16.6495 13.5129 16.8007C13.9094 14.0539 14.3059 11.307 14.7106 8.50291C14.265 8.54787 13.8767 8.62963 13.4925 8.61736C12.8221 8.59693 12.5237 8.23313 12.6627 7.57911C12.7608 7.10087 12.957 6.64306 13.1287 6.18116C13.3004 5.72335 13.4966 5.27371 13.6805 4.81999C13.6928 4.79546 13.6683 4.74641 13.6805 4.73006C14.6615 3.64685 15.148 2.03225 16.8934 1.73386C17.7804 2.31021 18.5202 3.0051 18.7369 4.14145C18.8595 4.77503 19.0925 5.38816 19.2601 6.01357C19.5053 6.9251 19.2397 7.8162 18.9617 8.64598C18.8186 9.067 18.2505 9.34904 17.8785 9.6924C17.4043 9.41853 17.0323 9.20189 16.5664 8.93211C16.4356 9.44714 16.2639 9.90904 16.2026 10.3832C15.896 12.8276 15.6385 15.2801 15.3278 17.7286C15.0049 20.2711 14.6248 22.8054 14.2978 25.3479C14.1383 26.6028 14.0239 27.8618 13.9094 29.1207C13.844 29.8197 13.6887 30.4615 13.0306 30.9724L13.0265 30.9642Z" fill="black"/>
<path d="M11.0108 4.57472C10.9904 4.60334 10.9372 4.72188 10.8473 4.79545C10.2178 5.32275 9.62919 5.91545 8.94247 6.34874C7.63035 7.17443 5.95853 7.24392 4.86714 5.88275C4.47064 5.39224 4.02101 4.94261 3.51823 4.38669C3.55094 4.29677 3.56729 3.9902 3.7267 3.86348C4.34802 3.36888 4.53196 2.65764 4.75677 1.96684C5.06743 1.02261 5.57429 0.319539 6.67386 0.25005C7.03765 0.229612 7.40145 0.14786 7.76524 0.0783711C8.77897 -0.113746 9.48203 0.335889 10.0502 1.12888C10.5489 1.82377 10.8596 2.55545 10.8146 3.43837C10.7982 3.78582 10.9331 4.14553 11.0149 4.57472H11.0108Z" fill="black"/>
<path d="M146.486 28.4994C146.911 28.5362 147.345 28.5607 147.766 28.618C148.305 28.6915 148.722 29.1616 148.661 29.5908C148.563 30.2694 148.195 30.5718 147.561 30.5432C147.202 30.5269 146.838 30.5759 146.474 30.5841C145.877 30.5964 145.456 30.0323 145.497 29.2883C145.526 28.7324 145.881 28.4422 146.482 28.4953L146.486 28.4994Z" fill="black"/>
</svg>
